<?xml version="1.0" standalone="no"?>
<!DOCTYPE svg PUBLIC "-//W3C//DTD SVG 20010904//EN"
 "http://www.w3.org/TR/2001/REC-SVG-20010904/DTD/svg10.dtd">
<svg version="1.0" xmlns="http://www.w3.org/2000/svg"
 width="926.000000pt" height="500.000000pt" viewBox="0 0 926.000000 500.000000"
 preserveAspectRatio="xMidYMid meet">

<g transform="translate(0.000000,500.000000) scale(0.100000,-0.100000)"
fill="#007cc1" stroke="none">
<path d="M4205 4990 c-1943 -96 -3535 -819 -4043 -1835 -109 -219 -155 -411
-156 -650 -1 -440 176 -821 558 -1200 198 -196 367 -326 631 -484 617 -370
1438 -635 2325 -751 1063 -139 2216 -61 3182 216 827 236 1489 598 1934 1055
296 305 466 626 515 968 16 117 6 380 -19 491 -56 241 -162 459 -321 659 -44
54 -84 102 -90 105 -8 5 -625 -348 -655 -375 -5 -5 8 -45 32 -96 60 -131 83
-226 89 -378 6 -150 -13 -264 -66 -401 -210 -542 -925 -1021 -1902 -1273
-1115 -288 -2451 -258 -3496 80 -174 57 -443 158 -443 168 0 3 1264 663 2809
1466 1545 803 2807 1463 2805 1467 -7 11 -240 132 -364 188 -694 316 -1499
507 -2400 570 -206 14 -725 20 -925 10z m948 -495 c245 -20 515 -57 735 -100
272 -54 624 -149 623 -169 0 -4 -1144 -544 -2541 -1198 l-2542 -1190 -45 43
c-138 135 -281 379 -329 564 -30 116 -38 307 -16 410 83 384 362 724 830 1008
532 322 1257 541 2067 622 368 37 840 41 1218 10z"/>
</g>
</svg>
