<?xml version="1.0" standalone="no"?>
<!DOCTYPE svg PUBLIC "-//W3C//DTD SVG 20010904//EN"
 "http://www.w3.org/TR/2001/REC-SVG-20010904/DTD/svg10.dtd">
<svg version="1.0" xmlns="http://www.w3.org/2000/svg"
 width="288.000000pt" height="288.000000pt" viewBox="0 0 288.000000 288.000000"
 preserveAspectRatio="xMidYMid meet">

<g transform="translate(0.000000,288.000000) scale(0.100000,-0.100000)"
fill="#0082F6" stroke="none">
<path d="M1215 2404 c-296 -29 -534 -131 -561 -239 -40 -160 317 -297 776
-299 709 -1 1052 299 542 475 -88 30 -184 49 -337 64 -166 17 -246 17 -420 -1z"/>
<path d="M652 1759 c3 -111 5 -127 26 -155 51 -68 213 -137 412 -176 153 -30
537 -30 690 0 246 48 406 127 430 213 6 19 10 80 10 137 l0 103 -66 -36 c-113
-59 -225 -91 -449 -127 -120 -19 -447 -16 -573 5 -199 34 -293 61 -402 118
-36 19 -69 36 -73 38 -5 2 -7 -52 -5 -120z"/>
<path d="M650 1306 c0 -130 8 -156 61 -200 69 -58 210 -112 379 -143 137 -25
555 -25 690 0 202 38 360 107 414 180 18 24 21 46 24 149 2 66 0 118 -5 116
-194 -95 -304 -128 -518 -154 -219 -26 -522 -13 -705 30 -140 33 -280 87 -322
124 -17 14 -18 9 -18 -102z"/>
<path d="M650 835 c0 -106 2 -118 25 -153 43 -65 189 -138 340 -168 39 -8 95
-19 125 -26 33 -7 150 -12 295 -12 210 0 254 3 355 23 142 29 262 71 338 120
80 52 92 80 92 219 l0 110 -76 -38 c-124 -63 -262 -100 -466 -125 -319 -39
-699 7 -929 112 -37 17 -69 36 -73 42 -19 30 -26 2 -26 -104z"/>
</g>
</svg>
